/* XPM */
static char * iconbar_xpm[] = {
"10 16 3 1",
" 	c None",
".	c #FF7300",
"+	c #151515",
"..........",
"++++++++++",
"++++++++++",
"++++++++++",
"++++++++++",
"++++++++++",
"++++++++++",
"++++++++++",
"++++++++++",
"++++++++++",
"++++++++++",
"++++++++++",
"++++++++++",
"++++++++++",
"++++++++++",
".........."};
