/* XPM */
static char * stick_pressed_xpm[] = {
"18 18 4 1",
" 	c None",
".	c #FF7300",
"+	c #151515",
"@	c #AA7300",
"..................",
"..................",
"++++++++++++++++++",
"++++++++++++++++++",
"++++++++++++++++++",
"+++++........+++++",
"+++++........+++++",
"+++++..++++..+++++",
"+++++..+@@+..+++++",
"+++++..+@@+..+++++",
"+++++..++++..+++++",
"+++++........+++++",
"+++++........+++++",
"++++++++++++++++++",
"++++++++++++++++++",
"++++++++++++++++++",
"++++++++++++++++++",
"++++++++++++++++++"};
