/* XPM */
static char * stick_xpm[] = {
"18 18 3 1",
" 	c None",
".	c #FF7300",
"+	c #151515",
"..................",
"..................",
"++++++++++++++++++",
"++++++++++++++++++",
"++++++++++++++++++",
"+++++........+++++",
"+++++........+++++",
"+++++..++++..+++++",
"+++++..++++..+++++",
"+++++..++++..+++++",
"+++++..++++..+++++",
"+++++........+++++",
"+++++........+++++",
"++++++++++++++++++",
"++++++++++++++++++",
"++++++++++++++++++",
"++++++++++++++++++",
"++++++++++++++++++"};
