/* XPM */
static char * submenu_hl_xpm[] = {
"10 17 2 1",
" 	c #FF7300",
".	c #1C1709",
"          ",
"          ",
"          ",
"          ",
"          ",
"   .      ",
"   ..     ",
"   ...    ",
"   ....   ",
"   ...    ",
"   ..     ",
"   .      ",
"          ",
"          ",
"          ",
"          ",
"          "};
