/* XPM */
static char * bar_xpm[] = {
"10 17 3 1",
" 	c None",
".	c #1C1709",
"+	c #6D3805",
"..........",
"..........",
"++++++++++",
"..........",
"..........",
"++++++++++",
"..........",
"..........",
"++++++++++",
"..........",
"..........",
"++++++++++",
"..........",
"..........",
"++++++++++",
"..........",
".........."};
