/* XPM */
static char * min_pressed_xpm[] = {
"17 17 3 1",
" 	c None",
".	c #1C1709",
"+	c #FF7300",
".................",
".................",
"..+++++++++++++..",
"..+++++++++++++..",
"..+++++++++++++..",
"..+++++++++++++..",
"..++.........++..",
"..+++.......+++..",
"..++++.....++++..",
"..+++++...+++++..",
"..++++++.++++++..",
"..+++++++++++++..",
"..+++++++++++++..",
"..+++++++++++++..",
"..+++++++++++++..",
".................",
"................."};
