/* XPM */
static char * stick_xpm[] = {
"17 17 4 1",
" 	c None",
".	c #1C1709",
"+	c #FF7300",
"@	c #151515",
".................",
".................",
".................",
".................",
"....+++++++++....",
"....+++++++++....",
"....++.....++....",
"....++.@@@@++....",
"....++.@@@@++....",
"....++.@@@@++....",
"....++.@@@@++....",
"....+++++++++....",
"....+++++++++....",
".................",
".................",
".................",
"................."};
